<svg xmlns="http://www.w3.org/2000/svg"  viewBox="0 0 40 40" width="40px" height="40px" fill-rule="evenodd" clip-rule="evenodd" baseProfile="basic"><path fill="#e1ebf2" fill-rule="evenodd" d="M20,1.507	c10.213,0,18.507,8.28,18.507,18.493S30.213,38.507,20,38.507S1.493,30.213,1.493,20S9.787,1.507,20,1.507z" clip-rule="evenodd"/><path fill="#f75252" fill-rule="evenodd" d="M20,4.493	c8.56,0,15.507,6.947,15.507,15.507S28.56,35.507,20,35.507S4.493,28.56,4.493,20S11.44,4.493,20,4.493z" clip-rule="evenodd"/><path fill="#ab3434" fill-rule="evenodd" d="M4,20	c0-8.827,7.16-16,16-16s16,7.173,16,16c0,8.84-7.16,16-16,16S4,28.84,4,20z M35,20c0-8.28-6.72-15-15-15S5,11.72,5,20s6.72,15,15,15	S35,28.28,35,20z" clip-rule="evenodd"/><path fill="#e1ebf2" fill-rule="evenodd" d="M3.08,27.507	c2.2-8.467,6.893-14.427,15.067-18.32c-0.573-0.493-1.213-0.96-2.08-1.333c3.253-0.627,6.52-0.587,9.773,0.747	c-2.173,1.8-3.893,3.813-5.307,5.947l-0.84-3.24c-5.893,4.413-7.867,11.04-7.013,20.2c5.227-0.213,9.813-2.68,13.093-9.053	l-3.64,0.293c2.253-2.44,4.12-4.507,5.467-7.427c1.813,2.893,3.227,5.253,4.347,8.213l-3.053-0.92	c0.053,5.453-0.72,10.28-2.16,14.627c-2.08,0.813-4.36,1.267-6.733,1.267C12.453,38.507,5.96,33.987,3.08,27.507z" clip-rule="evenodd"/><path fill="#66798f" fill-rule="evenodd" d="M26.253,37.08	c1.427-4.293,2.2-9.067,2.147-14.453l-0.013-0.68l2.693,0.813l-0.48-1.133c-0.627-1.347-1.333-2.627-2.133-3.96l-0.813-1.32	l-0.147,0.28c-0.947,1.747-2.093,3.213-3.387,4.68l-0.76,0.84l3.267-0.267l-0.413,0.8c-3.347,6.52-8.093,9.107-13.52,9.333	l-0.467,0.013l-0.053-0.467c-0.853-9.253,1.133-16.093,7.227-20.653l0.587-0.453l0.76,2.933l0.507-0.72	c0.8-1.04,1.693-2.067,2.693-3.027l0.947-0.853L24.48,8.64c-1.973-0.613-3.947-0.773-5.933-0.613l-0.933,0.12l0.853,0.667	L19.04,9.32l-0.68,0.32c-8.027,3.827-12.64,9.667-14.787,17.987c-0.08,0.267-0.347,0.427-0.613,0.36	C2.693,27.92,2.533,27.64,2.6,27.373C4.68,19.32,9.027,13.467,16.413,9.507l0.8-0.4l-0.28-0.213c-0.32-0.213-0.667-0.4-1.067-0.573	L14.36,7.68l1.613-0.307c3.32-0.64,6.693-0.613,10.067,0.76l0.773,0.32L26.16,8.987c-2.133,1.773-3.813,3.747-5.213,5.84	l-0.613,0.933L19.4,12.173l-0.427,0.36c-4.587,3.973-6.36,9.627-5.92,17.267l0.08,1.173l1.387-0.147	c3.96-0.627,7.467-2.813,10.187-7.48l0.187-0.32l-4,0.32l0.88-0.947c2.253-2.427,4.053-4.44,5.373-7.28l0.387-0.84l0.493,0.787	c1.813,2.88,3.253,5.28,4.387,8.293l0.36,0.947l-3.387-1.013l-0.013,1.36c-0.133,4.68-0.893,8.893-2.16,12.747	c-0.093,0.253-0.373,0.4-0.64,0.32C26.32,37.627,26.173,37.347,26.253,37.08z" clip-rule="evenodd"/><path fill="#66798f" fill-rule="evenodd" d="M2.627,27.72	C1.587,25.36,1,22.747,1,20C1,9.507,9.507,1,20,1s19,8.507,19,19c0,8.053-5.013,14.933-12.08,17.707C24.773,38.533,22.44,39,20,39	C12.253,39,5.587,34.36,2.627,27.72z M26.56,36.773C33.253,34.147,38,27.627,38,20c0-9.933-8.067-18-18-18S2,10.067,2,20	c0,2.6,0.547,5.08,1.547,7.307C6.347,33.613,12.667,38,20,38C22.307,38,24.52,37.56,26.56,36.773z" clip-rule="evenodd"/></svg>